<svg width="580" height="450" viewBox="0 0 580 450" fill="none" xmlns="http://www.w3.org/2000/svg">
<path d="M136 112.5C86.2601 159.491 53.0045 133.629 13.4999 189.5C-4.23315 214.58 -4.35342 247.506 13.4998 272.5C41 311 57.2243 308.615 80 328.5C104.668 350.037 83.0355 334.166 110.5 352C151.61 378.694 184.15 373.626 228.5 394.5C250.804 404.998 264.296 417.898 287 427.5C342.75 451.079 384.939 456.73 442.5 438C484.566 424.312 514.986 414.997 545 382.5C576.345 348.562 585.654 313.679 576 268.5C563.5 210 536.926 198.619 507 156.5C479.018 117.117 473.681 85.941 437 54.5C394.563 18.1248 345.957 -8.59116 291.5 4C255.162 12.402 225.551 27.8092 199.5 54.5C175.353 79.2395 161.129 88.7594 136 112.5Z" fill="#DDD6FE"/>
</svg>
